<?xml version="1.0" encoding="UTF-8"?>
<svg id="Layer_1" xmlns="http://www.w3.org/2000/svg" version="1.1" viewBox="0 0 1000 1000">
  <!-- Generator: Adobe Illustrator 30.1.0, SVG Export Plug-In . SVG Version: 2.1.1 Build 136)  -->
  <defs>
    <style>
      .st0 {
        fill: #ff4f00;
      }
    </style>
  </defs>
  <path class="st0" d="M249.32,566.57c7.9-2.91,15.04.74,18.35,8.2,2.82,6.34.63,14.42-7.6,17.96-6.14,2.64-14.57-.15-17.6-6.67-3.27-7.06-.96-16.61,6.84-19.48Z"/>
  <path class="st0" d="M599.81,722.91c7.69-2.82,15.77,1.16,18.16,8.34,2.32,6.98-.36,15.04-8.73,18.16-5.1,1.9-13.74-.42-16.71-6.97-3.13-6.87-.94-16.53,7.28-19.54Z"/>
  <path class="st0" d="M321.52,677.75c-1.91,9.84-12.12,10.81-17.91,8.54-7.87-3.08-10.58-12.25-7.36-19.87,2.73-6.44,12.5-10.32,20.16-5.15,3.64,2.46,6.16,11.05,5.1,16.47Z"/>
  <path class="st0" d="M493.82,229.56c8.51-4.34,16.25.15,19.33,7.25,2.67,6.15-.41,14.41-6.68,17.36-7.12,3.36-15.15,1.75-18.99-6.1-2.51-5.14-.88-14.82,6.34-18.5Z"/>
  <path class="st0" d="M287.08,638.94c-4.02,4.94-13.49,5.6-17.81,2.18-4.45-3.52-6.56-10.62-5.33-17.3.9-4.89,9.44-9.7,15.94-8.15,9.62,2.29,13.98,14.95,7.21,23.27Z"/>
  <path class="st0" d="M240.41,459.04c9.2-2.4,15.2,3.84,16.51,10.59,1.61,8.27-1.82,14.19-10.13,16.46-6.96,1.9-13.63-2.09-15.73-9.24-2.11-7.2.44-15.49,9.35-17.81Z"/>
  <path class="st0" d="M727.97,384.87c-7.81,2.79-14.99-1.13-17.25-7.67-1.95-5.66-.95-13.15,4.61-17.07,4.57-3.22,13.53-3.42,17.42,1.38,6.25,7.72,5.33,19.75-4.78,23.36Z"/>
  <path class="st0" d="M753.35,513.9c8.37-1.51,15.36,5.13,16.14,11.05,1.09,8.3-3.31,14.62-10.09,16.15-7.74,1.75-14.84-3.15-16.36-8.91-2.14-8.09.93-16.6,10.31-18.29Z"/>
  <path class="st0" d="M308.32,313.3c7.93-.83,13.7,7.47,14.07,12.99.6,8.87-5.16,13.97-12.11,15.07-8.07,1.29-13.92-5.36-14.85-11.47-1.29-8.46,2.75-15.54,12.89-16.6Z"/>
  <path class="st0" d="M549.47,739.34c7.25-2.35,14.44,2.04,16.76,8.11,2.82,7.37-.89,15.49-6.94,17.9-8.02,3.2-16.67-.67-18.73-7.02-2.59-8.01.31-16.19,8.91-18.98Z"/>
  <path class="st0" d="M440.94,739.85c7.48-3.49,15.62.87,18.18,6.76,3.04,7.02.26,15.95-6.9,18.53-6.67,2.41-14.13.88-18.02-5.87-3.26-5.66-1.8-15.43,6.74-19.42Z"/>
  <path class="st0" d="M684.08,662.13c6.97-4.45,15.64-1.39,19.12,4.76,3.46,6.12,2,14.91-5.31,19.27-4.77,2.84-13.63,1.45-17.7-3.69-4.37-5.52-3.75-15.46,3.89-20.34Z"/>
  <path class="st0" d="M346.94,277.4c7.99-1.74,13.95,4.38,15.29,11.17,1.55,7.79-2.9,14.33-9.99,16.08-7.58,1.88-14.15-2.7-16-8.84-2.71-9,1.31-16.36,10.7-18.41Z"/>
  <path class="st0" d="M717.39,617.2c8.08-3.52,15.3.7,17.98,7.34,2.82,7,.53,15.19-6.93,18.27-6.5,2.68-13.85.64-17.19-5.99-3.24-6.43-2.77-15.73,6.14-19.61Z"/>
  <path class="st0" d="M239.01,513.57c7.46-2.91,14.67.95,17.31,7.56,2.77,6.93.26,15.67-6.73,18.45-7.36,2.92-15.43-.08-18.65-7.66-2.78-6.54-.08-15.16,8.08-18.35Z"/>
  <path class="st0" d="M755.52,459.33c7.38-.76,14.35,7.02,14.59,12.57.37,8.28-5.44,14.61-11.82,15.23-8.44.82-14.5-4.72-15.52-11.53-1.17-7.83,2.97-15.27,12.75-16.28Z"/>
  <path class="st0" d="M269.21,382.8c-5.83-4.95-7.36-14.82-3.01-20.37,4.39-5.61,14.74-8.02,20.46-1.25,4.15,4.91,5.06,13.89,1.45,18.79s-13.49,7.42-18.89,2.83Z"/>
  <path class="st0" d="M439.2,236.04c7.22-4.48,16.4-2.79,19.43,3.94,2.72,6.04,2.59,15.44-4.9,19.79-4.87,2.83-13.71,2.73-17.93-4.16-3.01-4.92-3.91-15.04,3.4-19.57Z"/>
  <path class="st0" d="M566.26,251.81c-1.91,7.83-10.05,11.28-16.53,9.29-6.22-1.9-10.63-8.92-9.09-16.35,1.62-7.85,8.72-11.8,15.27-11,7.87.96,12.77,8.18,10.36,18.06Z"/>
  <path class="st0" d="M396.6,250.51c8.12-.22,12.94,8.62,12.68,14.41-.36,8.08-6.71,13.38-13.74,13.09-7.99-.33-13.18-5.93-13.5-13.47-.3-6.82,5.82-13.8,14.56-14.03Z"/>
  <path class="st0" d="M408.21,739.74c-1.44,7.64-8.59,10.71-14.87,9.85-6.76-.93-11.93-7.31-11.41-15.27.55-8.45,8.58-13.34,15.72-12.5,7.34.86,12.37,8.27,10.55,17.93Z"/>
  <path class="st0" d="M685.51,315.57c8.01-3.82,15.56.61,18.36,6.72,3.18,6.96.76,15.38-7.29,18.47-5.49,2.11-13.58.62-17.22-5.68-3.21-5.57-1.64-15.8,6.15-19.51Z"/>
  <path class="st0" d="M493.38,746.15c8.39-3.97,16.92.04,19.48,8.06,1.85,5.83-.02,13.43-7.03,16.63-6.4,2.92-14.71.9-18.36-5.75-3.02-5.49-1.72-15.33,5.92-18.94Z"/>
  <path class="st0" d="M749.46,593.61c-11.17,3.59-17.13-4.18-18-12.98-.8-8.08,6.84-16.27,17.34-13.6,4.53,1.15,9.08,8.16,9.4,12.25.42,5.52-3.16,12.54-8.73,14.33Z"/>
  <path class="st0" d="M599.88,251.6c7.34-2.76,15.41.21,17.63,7,2.29,6.98,1.46,15.74-7.29,18.89-6,2.16-14.49.37-17.59-7.84-2.24-5.92-.6-15.09,7.25-18.04Z"/>
  <path class="st0" d="M643.73,280.28c7.42-4.63,16.28-2.76,19.62,4,2.73,5.52,3.05,15.91-4.93,19.81-4.57,2.23-13.51,2.19-17.7-4.11-3.23-4.86-4.06-15.29,3.01-19.7Z"/>
  <path class="st0" d="M348.99,695.54c7.03-.19,13.5,6.83,13.66,12.82.21,7.72-6.2,13.66-12.35,14.11-8,.59-14.43-4.71-15.09-10.51-1.08-9.46,4.35-16.17,13.78-16.42Z"/>
  <path class="st0" d="M381.51,290.55c8.53-3.4,15.54.08,17.89,7.26,1.95,5.98-.38,14.78-6.72,17.33-6.72,2.7-14.07.59-17.21-5.89-2.8-5.77-1.83-15.57,6.05-18.71Z"/>
  <path class="st0" d="M646.22,697.16c7.18-2.62,14.96,0,17.44,6.79,2.45,6.7,1.31,14.7-7.07,18.34-5.98,2.6-13.62.09-17.27-7.64-2.74-5.79-1.15-14.56,6.9-17.5Z"/>
  <path class="st0" d="M740.43,408.32c8.7-3.05,15.76,1.82,17.8,9.36,1.59,5.86-2.15,13.69-8.94,15.84-6.52,2.07-13.83-1.09-17.13-8.17-2.54-5.45.47-14.3,8.28-17.03Z"/>
  <path class="st0" d="M720.35,439.61c7.5-1.22,13.42,3.56,14.77,9.86,1.58,7.37-2.43,14.74-8.65,16.32-8.49,2.15-14.75-2.6-16.48-9.95-1.68-7.14,1.72-14.82,10.36-16.23Z"/>
  <path class="st0" d="M385.22,710.32c-8.85-1.08-13.16-8.08-11.98-14.97,1.17-6.83,8.35-12.14,16.4-10.36,7.25,1.6,11.13,7.98,10.73,14.7-.38,6.37-7.02,11.63-15.15,10.64Z"/>
  <path class="st0" d="M247.63,408.74c6.98-3.86,15.79-2.52,18.97,4.34,2.74,5.91,2.75,14.04-4.38,18.58-4.57,2.91-13.46,2.3-17.17-2.52-4.73-6.14-4.33-16.58,2.59-20.4Z"/>
  <path class="st0" d="M719.54,534.99c7.86-1.67,14.41,3.72,15.82,9.54,1.77,7.3-2.97,14.8-9.02,16.31-7.11,1.78-14.19-2.11-16.21-7.87-2.48-7.06.03-15.99,9.41-17.98Z"/>
  <path class="st0" d="M703.33,581.09c7.22-2.53,14.37,1.02,16.71,7.85,2.33,6.82.17,14.39-7.78,16.99-6.28,2.06-14.47-.31-16.88-6.43-2.93-7.46.14-15.66,7.95-18.41Z"/>
  <path class="st0" d="M522.11,260.27c7.05-1.13,12.97,4.25,14.45,10.28,1.83,7.42-2.66,14.33-8.61,15.79-8.6,2.11-14.88-2.94-16.53-9.49-1.96-7.81,1.81-15.15,10.69-16.58Z"/>
  <path class="st0" d="M470.89,714.27c7.23-2.58,14.5.81,17.35,7.19,2.67,5.98.09,14.79-7.25,17.64-6.18,2.4-14.17.49-17.13-7.29-2.12-5.59-.27-14.94,7.02-17.54Z"/>
  <path class="st0" d="M312.08,353.5c8.33-2.62,14.61,2.74,16.61,8.8,2.44,7.39-1.2,14.89-9.47,16.93-5.65,1.4-12.99-1.27-15.78-8.24-2.21-5.53.51-14.93,8.63-17.48Z"/>
  <path class="st0" d="M565.43,271.18c7.95-3.09,14.77.93,17.21,7.69,2.41,6.67.37,14.08-7.19,16.98-6.09,2.33-13.17.09-16.14-5.91-3.18-6.4-2.6-15.37,6.13-18.76Z"/>
  <path class="st0" d="M272.53,559.98c-3.7-1.21-7.33-7.41-7.9-11.25-.53-3.53,1.63-10.06,5.04-12.47,4.91-3.48,12.83-3.06,16.69.94,3.39,3.51,4.72,11.5,2.57,17.11-1.76,4.59-9.94,7.79-16.39,5.68Z"/>
  <path class="st0" d="M681.58,621.67c7.69-1.33,14.14,4.55,15.32,9.96,1.7,7.71-3.2,14.68-8.84,16.07-7.81,1.92-14.67-2.25-16.25-7.87-2.07-7.36.36-16.53,9.76-18.15Z"/>
  <path class="st0" d="M270.17,440.84c7.36-4.5,15.71-2.05,18.9,4.82,2.4,5.16,2,14.59-5.12,18.29-4.74,2.46-13.18,1.6-17.02-3.88-3.38-4.83-3.1-15.36,3.24-19.23Z"/>
  <path class="st0" d="M472.65,260.6c7.59-2.22,14.71,3.18,16.29,8.67,2.21,7.7-1.43,14.77-9.4,17.11-5.84,1.72-13.06-1.31-15.64-8.59-1.9-5.37.14-14.67,8.75-17.19Z"/>
  <path class="st0" d="M424.51,270.9c7.45-2.81,14.85.52,17.43,7.41,2.26,6.06.61,14.04-6.06,16.9-6.13,2.63-13.85.69-16.54-4.47-3.94-7.55-3-16.76,5.18-19.85Z"/>
  <path class="st0" d="M519.84,714.14c6.92-2.08,14.08,1.77,16.41,8.18s-1.22,14.49-7.38,16.84c-6.93,2.64-15.01-1.33-17.32-6.86-3.17-7.57.26-15.74,8.29-18.16Z"/>
  <path class="st0" d="M579.06,707.05c6.98,5.46,5.3,14.34,1.53,18.58-5.26,5.9-14.19,6.16-19.39,1.22-5.05-4.79-6.41-14.67.09-19.84,3.99-3.18,13.43-3.36,17.77.04Z"/>
  <path class="st0" d="M284.32,505.55c-2.2,6.73-11.46,8.7-17.03,6.49-5.94-2.35-8.89-10.34-6.55-17.92,2.03-6.57,10.73-9.19,16.09-7.29,6.59,2.34,10.27,10.24,7.49,18.72Z"/>
  <path class="st0" d="M313.1,621.15c7.39-1.94,13.22,3.05,15.11,9.23,2.31,7.54-1.1,14.72-9.01,16.85-7.01,1.89-14.05-1.78-16.06-10.43-1.42-6.09,1.3-13.37,9.96-15.65Z"/>
  <path class="st0" d="M664.8,674.13c-1.44,9.27-11.35,11.08-17.5,8.73-5.5-2.1-9-10.14-7.52-16.76,1.4-6.27,10.05-11.19,17.71-8.09,4.77,1.93,8.3,9.75,7.31,16.12Z"/>
  <path class="st0" d="M346.99,317.55c7.04-.82,13.48,5.31,13.95,10.66.71,8.15-3.81,14.49-9.95,15.46-7.81,1.23-14.6-3.01-15.62-9.3-1.35-8.31,2.24-15.73,11.62-16.82Z"/>
  <path class="st0" d="M626.22,308.65c-2.93,7.94-12.67,9.28-18.26,5.99-5.25-3.1-8.08-11.02-5.61-17.55,1.92-5.09,10.83-9.44,16.78-6.61,6.12,2.91,9.69,11.15,7.09,18.18Z"/>
  <path class="st0" d="M344.63,656.97c7.67-1.91,14.14,2.78,15.67,9.43,1.59,6.9-1.84,14.29-7.99,16.13-7.32,2.18-14.36-1.11-16.21-6.81-2.74-8.46-.38-16.53,8.53-18.75Z"/>
  <path class="st0" d="M291.77,579.48c6.36-.29,12.21,5.91,12.91,11.35,1.05,8.09-4.19,14.1-10.51,14.85-8.97,1.07-13.91-4.19-14.91-12.24-.88-7.09,3.41-13.55,12.51-13.97Z"/>
  <path class="st0" d="M721.39,488.55c8.25-3.91,15.85.14,18.03,7.17,1.9,6.11.37,13.78-6.37,16.88-5.59,2.57-13.82.05-16.21-4.52-3.72-7.1-2.95-15.97,4.56-19.53Z"/>
  <path class="st0" d="M430.93,703.9c7.34-.31,11.63,7.44,11.61,12.96-.04,8.31-6.05,13.46-13.42,13.2-6.66-.24-11.66-6.08-12.5-11.98-1.2-8.48,3.75-13.72,14.31-14.17Z"/>
  <path class="st0" d="M703.11,395.64c7.03-2.21,14.66,1.49,17,7.31,2.62,6.53-.5,13.78-6.48,16.19-6.47,2.62-14.44.84-17.7-5.95-2.6-5.43-.38-15.19,7.18-17.56Z"/>
  <path class="st0" d="M693.66,375.99c-5.07,5.66-13.43,5-18.33.65-3.44-3.05-4.89-11.61-2.59-16.99,1.79-4.18,10.57-7.42,15.63-5.39,8.56,3.44,11.49,14.82,5.29,21.73Z"/>
  <path class="st0" d="M649.96,344.44c-4.08-.5-8.91-5.73-9.77-9.15-1.12-4.45.34-12.61,4.43-15.12,4.65-2.86,12.58-2.53,16.56.67,3.38,2.72,4.52,10.6,2.92,16.79-1.08,4.17-7.84,7.59-14.14,6.81Z"/>
  <path class="st0" d="M287.49,395.25c7.47-2.79,14.09.48,16.69,7.98,1.93,5.56.02,12.9-6.5,15.55-6.53,2.66-13.47.8-16.83-6.22-2.85-5.95-1.5-14.27,6.64-17.31Z"/>
  <path class="st0" d="M614.72,685.05c6.67-.2,12.47,6.71,12.38,12.6-.11,7.08-6.07,12.88-12.34,13.06-6.67.19-13.48-5.27-13.86-11.03-.56-8.39,4.96-14.37,13.82-14.63Z"/>
  <path class="st0" d="M377.99,327.81c6.07-2.4,14.15-.34,17.06,5.17,2.95,5.6,1.51,13.79-5.52,17.09-5.04,2.36-13.34.95-16.49-4.6-3.32-5.85-2.24-14.82,4.95-17.67Z"/>
  <path class="st0" d="M384.06,649.46c7.01-.2,11.89,7.28,12.05,12.54.23,7.67-5.64,11.82-12.01,12.36-6.86.59-12.07-5.97-12.85-10.92-1.27-7.97,3.82-13.71,12.81-13.98Z"/>
  <path class="st0" d="M647.64,621.88c7.6-.78,13,6.33,12.87,12.31-.16,6.72-4.93,11.93-11.99,12.58-6.27.58-11.94-4.47-12.63-11.08-.63-6.06,3.8-12.99,11.75-13.81Z"/>
  <path class="st0" d="M348.96,355.04c6.2-2.25,12.76,1.83,14.73,7.71,1.95,5.82-.55,13.51-6.97,15.82-6.11,2.19-13.34-1.09-15.48-7.44-2.12-6.28,0-13.28,7.73-16.09Z"/>
  <path class="st0" d="M302.99,571.07c-3.1-2.78-5.26-11.18-3.86-14.46,3.16-7.42,11.71-9.27,17.09-6.18,5.82,3.35,7.59,11.61,5.01,17.33-2.56,5.68-11.96,8.92-18.23,3.3Z"/>
  <path class="st0" d="M413.32,307.11c7.22-3.66,14.03-.45,16.88,5.89,2.46,5.48,1.39,12.83-5.25,15.93-5.4,2.51-12.1,1.22-15.1-3.31-3.88-5.86-3.84-14.8,3.48-18.51Z"/>
  <path class="st0" d="M295.54,510.12c6.89-4.1,14.1-1.22,17.06,5.04,2.47,5.22,1.9,12.86-5.07,16.77-4.24,2.37-11.84.99-15.34-4.13-3.3-4.82-3.53-13.57,3.35-17.67Z"/>
  <path class="st0" d="M643.39,355.91c7.28-2.85,13.93.92,15.89,6.79,2.08,6.24.82,13.86-6.89,16.19-5.4,1.63-11.67.33-14.81-6.55-2.18-4.77-2.21-13.29,5.81-16.43Z"/>
  <path class="st0" d="M322.6,389.44c6.72-2.9,14.67.7,16.62,6.33,2.09,6.02.36,13.68-7.6,16.61-4.31,1.59-11.47.2-14.83-6.24-2.3-4.4-1.78-13.42,5.82-16.7Z"/>
  <path class="st0" d="M351.19,621.44c6.47-.81,11.55,4.63,12.52,9.63,1.51,7.8-2.41,13.86-8.5,14.78-7.93,1.2-13.72-3.22-14.85-10.08-1.1-6.69,2.54-13.3,10.83-14.33Z"/>
  <path class="st0" d="M627.97,345.72c-1.4,4.64-10.44,7.03-14.42,5.37-5.52-2.31-8.99-9.09-7.68-15.81,1.38-7.07,9.8-9.6,15.5-7.9,6.01,1.8,9.38,9.16,6.6,18.34Z"/>
  <path class="st0" d="M574.2,672.86c6.84-4.16,14.3-1.99,17.49,3.99,2.74,5.14,1.48,14.37-5.18,17.49-4.31,2.02-11.25,1.47-15.36-3.98-3.27-4.33-3.49-13.53,3.05-17.51Z"/>
  <path class="st0" d="M319.67,609.34c-4.85-4.1-4.96-13.95-.82-18.39,4.32-4.64,13.15-4.28,16.52-.74,4.49,4.71,4.83,12.29,2.05,16.97-3.13,5.29-11.98,7.05-17.75,2.15Z"/>
  <path class="st0" d="M694.15,467.84c7.49-2.23,13.71,2,15.31,7.86,1.64,6.04-1.86,13.22-6.9,14.99-6.38,2.24-13.67-.87-15.59-5.33-2.81-6.53-.47-15.24,7.18-17.52Z"/>
  <path class="st0" d="M668.77,389.62c7.73-2.48,13.39,1.94,15.23,7.98,1.83,5.99-1.08,12.93-6.75,15.09-6.31,2.4-12.62-.89-15.14-6.15-2.75-5.72-.95-14.48,6.66-16.92Z"/>
  <path class="st0" d="M688.34,549.84c6.82-1.06,12.21,6.22,12.55,10.85.51,7.1-3.91,13.35-9.9,13.8-7.19.55-12.62-3.61-13.56-10.09-.89-6.16,1.98-13.17,10.91-14.56Z"/>
  <path class="st0" d="M576.42,306.89c7.12-2.4,14.17.33,16.01,6.62,1.83,6.23.39,13.14-6.29,16.11-5.03,2.24-12.75.25-15.07-4.59-3.31-6.92-2.29-15.56,5.35-18.13Z"/>
  <path class="st0" d="M610.23,672.55c-4.92-4.35-6.24-13.49-2.51-18.38s13.27-5.34,17.42-1.58c4.36,3.95,5.18,12.11,1.69,17.66-2.52,4.01-12.1,6.27-16.59,2.3Z"/>
  <path class="st0" d="M665.51,590.21c6.15-3.58,13.71-1.77,17.5,4,2.8,4.26,1.26,12.15-2.75,15.43-5.24,4.28-13.44,3.46-17.1-1.12-4.04-5.06-3.84-14.7,2.34-18.3Z"/>
  <path class="st0" d="M500.15,288.44c6.76-.23,11.82,6.91,11.97,12.42.2,7.13-4.96,11.43-12.27,12.33-5.66.7-10.82-5.67-11.56-11.02-1.01-7.31,2.65-13.42,11.85-13.73Z"/>
  <path class="st0" d="M687.63,450.74c-3.88-.52-8.4-4.82-9.43-7.85-1.24-3.65-.36-10.69,2.2-13.45,3.66-3.96,12.45-4.51,16.2-1.05,2.92,2.7,5.26,9.54,4.48,14.19-.71,4.24-7.87,8.9-13.45,8.16Z"/>
  <path class="st0" d="M310.97,425.21c6.09-.05,11.21,6.2,11.73,10.69.94,8.07-3.82,13.69-11.54,13.96-6.51.22-12.05-4.39-12.46-12.64-.26-5.34,4.27-11.94,12.27-12Z"/>
  <path class="st0" d="M411.59,673.06c6.84-4.63,15.06-2.31,17.96,3.74,2.32,4.84,2,13.11-4.32,17.15-3.91,2.5-11.9,1.19-15.37-3.13-3.74-4.65-3.77-14.03,1.73-17.76Z"/>
  <path class="st0" d="M297.3,467.41c7.47-3.11,13.87.92,15.92,7.09,1.96,5.88.28,13.32-7.15,16.02-4.96,1.8-11.82-.25-14.67-6.36-2.37-5.08-1.7-13.59,5.89-16.75Z"/>
  <path class="st0" d="M535.38,294.67c8.07-4.01,15.39-.53,17.22,5.95,1.51,5.38.65,13.36-6.22,16.24-4.49,1.88-12.14-.12-15.2-5.19-2.79-4.62-1.32-14.25,4.2-17Z"/>
  <path class="st0" d="M453.75,316.38c-7.85-4.63-8.88-15.4-2.35-20.99,4.31-3.69,12.64-3.19,16.38,1.15,2.78,3.23,3.43,11.94.76,16.23-2.24,3.61-10.63,6.06-14.79,3.61Z"/>
  <path class="st0" d="M692.61,532.78c-3.33-1.61-6.37-7.68-6.53-10.8-.22-4.25,2.68-10.34,7.28-12.11,4.96-1.91,12.29.29,14.08,3.71,2.24,4.27,2.42,12.05.01,15.68-2.34,3.52-10.01,5.86-14.84,3.53Z"/>
  <path class="st0" d="M494.09,689.23c7.23-3.05,13.51-.54,16.39,5.99,2.16,4.9,1.03,12.69-4.04,15.01-5.99,2.73-13.94,1.9-16.83-3.82-2.74-5.41-2.17-14.37,4.48-17.18Z"/>
  <path class="st0" d="M453.23,685.04c7.39-3.57,14.77.44,16.89,6.39s-.05,12.57-6.97,15.38c-4.53,1.84-12.67-.32-15.92-6.51-2.12-4.04-.46-12.14,6-15.26Z"/>
  <path class="st0" d="M536.42,684.63c5.76-1.94,13.21.84,15.44,5.34,3.01,6.08.58,13.94-4.98,16.31-5.91,2.53-14.1.44-16.78-5.08s-.73-14.2,6.32-16.57Z"/>
  <path class="st0" d="M379.41,619.52c6.2-2.7,13.42-.63,16.01,4.57,2.5,5,.49,12.07-5.9,15.26-3.69,1.84-10.31.5-13.58-3.42-3.77-4.52-3.76-13.26,3.46-16.41Z"/>
  <path class="st0" d="M379.96,361.61c6.31-2.43,12.56-.81,15.19,5.01,2.29,5.07,1.59,11.69-5.56,15.21-4.08,2.01-11.21.61-14.02-4.87-2.67-5.23-2.04-12.88,4.38-15.36Z"/>
  <path class="st0" d="M582.95,640.32c6.17-1.97,12.4,1.46,13.7,6.75,1.44,5.85-.11,12.12-6.11,14.17-4.6,1.57-11.64-.68-13.47-4.64-3-6.51-1.23-14,5.87-16.27Z"/>
  <path class="st0" d="M664.91,526.35c6.71-2.28,12.64.65,14.2,6.44,1.45,5.38.62,11.59-6.04,14.12-4.24,1.61-10.45.07-13.05-5.08-2.56-5.06-1.28-13.39,4.89-15.48Z"/>
  <path class="st0" d="M479.17,317.58c6.28-1.84,11.72,2.56,13.08,7.78,1.3,4.98-2.03,11.84-7,13.23-5.24,1.47-11.21-1.68-13.02-5.87-2.42-5.64-.65-12.92,6.94-15.14Z"/>
  <path class="st0" d="M514.91,317.63c6.1-2.01,12.13,2.37,13.42,7.15,1.57,5.78-.73,12.02-7.07,13.83-4.81,1.37-10.37-1.16-12.76-6.11-2.31-4.8-.84-12.48,6.41-14.87Z"/>
  <path class="st0" d="M338.01,560.11c6.42-2.11,12.29,1.24,13.8,6.71,1.59,5.75.44,11.86-5.99,14.05-4.51,1.54-11.23-.27-13.14-4.6-2.76-6.23-1.54-13.91,5.33-16.16Z"/>
  <path class="st0" d="M637.44,591.95c6.36-1.76,11.63,2.71,13.06,7.9,1.41,5.09-2.11,11.65-7.02,13.31-5.39,1.83-11.04-1.68-12.94-6.09-2.4-5.58-.77-13.01,6.9-15.13Z"/>
  <path class="st0" d="M443.18,655.16c5.92-2.39,12.32,2.01,13.79,6.74,1.81,5.84-.33,12.1-7.4,14.24-3.76,1.14-10.38-1.19-12.77-5.73-2.47-4.68-.65-12.41,6.38-15.25Z"/>
  <path class="st0" d="M663.7,439.45c-3.5,1.58-10.25,1.02-12.26-1.16-2.05-2.21-3.5-7.91-3.48-12.79.01-3.17,6.82-7.16,9.97-7.15,4.23.01,9.36,3.88,10.28,7.36,1.21,4.6-.1,11.76-4.51,13.74Z"/>
  <path class="st0" d="M330.39,452.44c4.82-.61,10.63,4.98,11.15,9.06.77,6.09-2.9,12.09-7.68,12.88-6.64,1.1-11.51-2.77-12.77-7.38-2.05-7.49.41-13.44,9.31-14.56Z"/>
  <path class="st0" d="M657.22,560.23c5.89-.75,11.3,3.89,11.4,8.77.12,5.82-3.23,12.24-7.47,12.77-6.8.87-11.87-2.44-12.92-7.08-1.68-7.43.89-13.43,8.99-14.46Z"/>
  <path class="st0" d="M625.82,377.58c-.89,3.45-8.85,6.2-12.66,5.31-3.53-.82-7.4-7.06-7.46-11.66-.1-6.95,6.45-10.77,11.53-10.45,6.77.43,11.12,7.02,8.6,16.79Z"/>
  <path class="st0" d="M336.91,419.11c7.65-3.53,13.61.47,15.25,6.07,1.51,5.17.5,11.64-6.23,14.21-3.95,1.51-10.43-.35-13.1-5.16-2.28-4.11-.93-12.8,4.08-15.12Z"/>
  <path class="st0" d="M612.52,619.09c6.11-2.11,12.24,1.41,13.64,6.88,1.39,5.43-.24,11.78-6.16,14.1-4.4,1.72-11.11-.84-13.16-4.91-3.12-6.19-1.38-13.63,5.68-16.06Z"/>
  <path class="st0" d="M325.28,488.65c5.82-1.28,11.38,4.75,12.06,8.82.99,6.02-2.56,12-7.73,12.83-6.19.99-11.48-2.47-12.75-7.42-1.48-5.77.62-12.51,8.42-14.23Z"/>
  <path class="st0" d="M474.92,664.63c6.05-4.27,13.28-2.03,16.43,3.37,2.08,3.56,1.07,10.81-2.8,13.79s-12.11,2.06-15.36-1.5c-3.15-3.45-2.69-12.53,1.74-15.66Z"/>
  <path class="st0" d="M513.09,663.49c5.96-2.3,12.56.45,14.77,5.95,1.63,4.05-.24,11.51-4.3,13.23-5.41,2.29-12.51,1.22-14.97-3.43-2.62-4.96-1.57-13.41,4.5-15.75Z"/>
  <path class="st0" d="M663.27,455.09c5.71-3.3,12.85-1.55,15.81,3.99,1.95,3.64.98,10.57-2.79,13.56-4.09,3.25-12.07,2.51-15.19-1.27-3.49-4.22-2.96-13.31,2.17-16.28Z"/>
  <path class="st0" d="M356.24,612.42c-3.45-1.14-6.82-7.14-6.72-10.02.1-2.88,2.8-8.97,5.49-10.4,3.83-2.04,11.17-.33,13.21,2.52,1.89,2.65,2.44,8.69,1.35,12.65-.96,3.47-7.43,7.18-13.32,5.24Z"/>
  <path class="st0" d="M635.39,389.08c6.22-2.45,12.25-.25,14.72,5.68,1.94,4.66,1.11,11-5.69,14.3-4.52,2.2-10.42.73-13.38-5.17-2.32-4.63-1.34-12.57,4.35-14.82Z"/>
  <path class="st0" d="M551.6,654.96c5.68-1.1,10.92,3.12,12.33,8.16,1.53,5.44-2.33,11.25-7.65,12.82-5.82,1.72-11.74-2.07-13.19-7.07-1.73-5.93,1.95-12.64,8.51-13.91Z"/>
  <path class="st0" d="M325.26,526.31c5.13-2.51,12.44-.75,14.76,3.74,2.04,3.94,1.02,12.55-2.7,14.73-5.14,3-12.76,1.53-15.35-2.63-2.88-4.62-1.82-13.34,3.29-15.84Z"/>
  <path class="st0" d="M441.34,326.07c5.41-2.51,12.37-.78,14.57,3.35,2.59,4.87,1.77,12.56-2.58,15.04-4.99,2.86-12.94,1.72-15.64-2.68-2.65-4.32-1.22-13.46,3.65-15.72Z"/>
  <path class="st0" d="M407.36,341.4c5.36-3.76,12.83-1.62,15.33,2.5,2.56,4.23,1.95,12.41-2.59,15.67-3.34,2.39-11.28,1.55-14.25-2.03-2.91-3.5-3.44-12.67,1.52-16.14Z"/>
  <path class="st0" d="M580.91,341.02c5.17-2.57,12.3-.99,14.65,3.01,2.62,4.46,1.98,12.74-2.39,15.49-4.76,3-12.4,1.69-15.51-3.36-2.45-3.98-1.93-12.56,3.24-15.14Z"/>
  <path class="st0" d="M409.71,640.47c6.11-1.88,12.6,1.66,13.89,6.57,1.45,5.54-.39,11.41-6.31,13.87-4.17,1.73-11.1-.23-12.93-4.49-2.35-5.49-.56-14.13,5.34-15.95Z"/>
  <path class="st0" d="M361.19,387.35c4.97-.26,10.06,6.8,10.01,10.86-.07,6.13-4.91,10.86-9.81,11.19-6.48.44-10.67-4.8-11.21-9.78-.68-6.25,2.33-11.81,11-12.27Z"/>
  <path class="st0" d="M549,325.71c6.15-2.47,12.41.42,14.64,6.34,1.53,4.07-.14,10.98-4.39,13.02-5.64,2.71-11.89,1.22-14.88-4.16-2.51-4.53-1.56-12.73,4.63-15.21Z"/>
  <path class="st0" d="M666.98,491.13c5.58-3.43,12.58-1.15,14.85,3.01,2.6,4.77,2.15,12.52-2.55,15.55-3.8,2.45-11.39,1.02-14.23-2.45-3.25-3.96-3.84-12.57,1.94-16.11Z"/>
  <path class="st0" d="M385.88,391.27c6.1-2.17,12.14.29,13.73,5.08s-.17,11.92-5.52,13.82c-3.62,1.29-10.49-.58-12.58-3.58-3.13-4.49-2.41-12.91,4.37-15.32Z"/>
  <path class="st0" d="M496.44,640.23c5.27-1.72,10.87,1.36,12.48,6.06,1.53,4.45-.53,11.8-4.43,13.13-6.05,2.07-12.17-.36-13.88-4.95-2.08-5.61-.52-12.17,5.83-14.24Z"/>
  <path class="st0" d="M389.6,589.6c3.98-.54,9.17,4.82,9.93,8.38,1.26,5.92-2.66,11.44-6.68,12.06-7.08,1.09-12.38-3.01-13.12-7.74-1.05-6.71,1.85-11.61,9.87-12.7Z"/>
  <path class="st0" d="M608.14,391.31c5.59-1.56,11.02,1.3,12.59,6.17,1.41,4.36-.61,11.5-4.52,12.77-6.01,1.95-12.2-.47-13.85-4.88-2.02-5.39-.13-12.41,5.77-14.06Z"/>
  <path class="st0" d="M348.67,505.55c5.48-1.49,10.86,1.6,12.43,6.12,1.56,4.49-.69,11.36-4.4,12.8-6.14,2.38-12.02-.22-13.76-5.17-1.75-4.97,0-12.2,5.72-13.75Z"/>
  <path class="st0" d="M370.4,564.36c4.3-.45,9.23,4.46,10.02,8.17,1.17,5.55-2.83,11.17-6.78,11.93-6.5,1.25-11.63-3.1-12.39-7.8-.99-6.15,1.65-11.51,9.15-12.3Z"/>
  <path class="st0" d="M554.66,356.05c5.92-3.76,12.43-1.88,14.93,3.24,1.75,3.58.87,10.48-3.62,13.7-2.89,2.07-10.12,1.42-12.4-1.34-3.02-3.65-3.18-12.89,1.1-15.6Z"/>
  <path class="st0" d="M648.85,505.44c5.17-.4,9.2,5.76,9.46,10.55.29,5.33-3.66,9.48-10.31,10.3-3.81.47-8.58-4.3-9.49-9.52-.88-5.04,3.36-10.79,10.35-11.33Z"/>
  <path class="st0" d="M643.88,475.48c5.49-1.87,11.91.55,13.54,5.02,1.61,4.42.43,11.38-3.94,13.18-4.45,1.83-10.77.85-12.71-2.4-2.97-4.97-2.71-13.81,3.12-15.79Z"/>
  <path class="st0" d="M350.68,473.89c4.56-.95,10.06,4.19,10.82,7.74,1.26,5.87-2.01,11.36-6.55,12.06-5.61.86-10.7-2.17-12.12-6.01-2.04-5.51-.07-12.14,7.85-13.78Z"/>
  <path class="st0" d="M352.58,445.14c5.4-3.82,12.31-2.17,14.43,2.79,1.72,4.03,1.71,11.04-3.05,14.22-3.02,2.02-10.09,1.08-12.84-2.07-2.88-3.3-2.77-11.96,1.46-14.95Z"/>
  <path class="st0" d="M528.06,344.81c5.15-1.47,10.65,1.81,12.37,6.33,1.8,4.72-.39,10.94-4.99,12.47-5.67,1.89-11.66-.28-13.28-4.71-2.01-5.49-.17-12.36,5.9-14.09Z"/>
  <path class="st0" d="M500.81,340.98c4.05.24,8.99,5.47,9.21,9.06.32,5.44-4.56,11.18-9.05,11.13-6.35-.07-10.58-4.46-10.93-10.02-.34-5.45,3.84-10.58,10.78-10.18Z"/>
  <path class="st0" d="M434.93,627.52c5.75-1.94,11.54.73,13.42,5.26,1.82,4.4.64,11.14-3.61,13.08-4.45,2.04-10.99.63-12.92-2.61-2.97-4.98-2.75-13.76,3.1-15.74Z"/>
  <path class="st0" d="M585.2,370.12c4.93-1.44,10.62,1.88,12.26,6.48,1.5,4.22-.95,11.31-4.65,12.72-5.78,2.21-12.17-.71-13.71-5.07-2.08-5.92-.7-12.14,6.1-14.13Z"/>
  <path class="st0" d="M407.15,370.99c6.26-3.57,12.38-.32,14.15,4.1,1.74,4.34.86,11.39-3.84,13.73-3.48,1.74-10.83.22-12.69-3.03-2.31-4.02-1.97-12.32,2.38-14.8Z"/>
  <path class="st0" d="M640.1,536.82c4.82-.96,10.87,2.98,11.57,6.51,1.21,6.08-1.43,11.42-7.36,13.23-4.94,1.5-10.26-1.76-12.12-8.15-1.11-3.81,2.09-10.43,7.91-11.59Z"/>
  <path class="st0" d="M354.87,536.72c5.86-2.1,10.61.67,12.62,6.04,1.6,4.3-.14,10.27-5.24,12.79-4.45,2.19-10.67-.54-12.62-5.27-2.02-4.89-.49-11.52,5.24-13.57Z"/>
  <path class="st0" d="M640.09,443.97c5.46-1.22,10.92,2.94,11.6,7.05.86,5.2-1.87,11.54-5.55,12.51-5.65,1.49-11.77-1.12-12.95-4.98-1.83-6,.43-13.14,6.89-14.58Z"/>
  <path class="st0" d="M469.39,636.29c5.27-.31,9.22,5.65,9.51,10.55.28,4.81-4.42,9.71-10.09,10.35-3.94.45-8.44-4.57-9.59-9.67-1.11-4.89,3.41-10.84,10.17-11.24Z"/>
  <path class="st0" d="M557.87,627.44c4.89-1.42,10.24,1.95,12.18,6.72,1.66,4.08-1.27,10.8-5.35,12.24-5.66,2-11.64-.74-13.03-4.64-2.25-6.34-.52-12.36,6.2-14.31Z"/>
  <path class="st0" d="M370.27,414.6c4.42-.66,9.64,4.12,10.29,7.93.92,5.35-2.71,11.11-6.59,11.86-6.7,1.28-11.54-2.47-12.53-7.59-1.06-5.53,2.05-11.18,8.83-12.19Z"/>
  <path class="st0" d="M580.95,613.35c4.52-3.21,12.54-1.93,15.24,2.11,2.12,3.15,1.61,11.42-2.2,14.37-2.99,2.31-10.29,2.41-13.07-.39-3.66-3.69-4.14-13.12.03-16.08Z"/>
  <path class="st0" d="M624.24,566.48c5.66-3.1,11.82,0,14,4.97,1.58,3.6-.46,11.11-5.23,13.29-3.33,1.52-9.12.01-11.85-3.72s-2.52-11.46,3.09-14.53Z"/>
  <path class="st0" d="M605.67,591.71c6.17-2.46,12.12-.8,14.42,4.67,1.53,3.62.2,10.84-4.44,13.42-3.29,1.83-10.38.61-12.43-2.54-3.27-5.02-2.9-13.42,2.45-15.56Z"/>
  <path class="st0" d="M467.03,344.67c5.54-1.18,10.72,2.69,11.26,7.06.63,5.11-1.57,11.44-5.52,12.24-5.35,1.08-11.02-1.42-12.33-4.93-2.08-5.59.2-13.01,6.59-14.37Z"/>
  <path class="st0" d="M412.54,610.98c4.55-.3,9.35,4.99,9.67,8.92.43,5.22-3.12,10.84-7.77,11.37-6.2.71-10.29-2.6-11.15-7.73-1.08-6.45.97-12.01,9.24-12.55Z"/>
  <path class="st0" d="M531.67,636.57c6-.01,9.53,6.68,9.17,10.51-.57,6.11-5.18,9.63-10.43,9.78-5.58.16-9.64-4.53-9.56-10.01.06-4.61,4.23-10.26,10.82-10.28Z"/>
  <path class="st0" d="M441.68,353.72c3.89.25,8.21,6.75,7.98,10.33-.38,5.92-5.11,10.21-10.95,10.2-4.19,0-8.07-5.21-8.52-8.74-.74-5.75,2.22-12.38,11.5-11.79Z"/>
  <path class="st0" d="M629.07,414.79c4.14-.15,9.52,5.49,10.01,8.99.73,5.23-3.42,11.26-8.89,11.67-4.34.33-8.87-3.48-9.84-6.9-1.56-5.49.52-13.47,8.72-13.77Z"/>
  <circle class="st0" cx="499.59" cy="505.17" r="56.91"/>
</svg>