<?xml version="1.0" encoding="UTF-8"?>
<svg id="Layer_1" xmlns="http://www.w3.org/2000/svg" version="1.1" viewBox="0 0 1282.18 1267.28">
  <!-- Generator: Adobe Illustrator 30.1.0, SVG Export Plug-In . SVG Version: 2.1.1 Build 136)  -->
  <defs>
    <style>
      .st0 {
        fill: #fff;
      }

      .st1 {
        fill: #003fb2;
      }
    </style>
  </defs>
  <g>
    <path class="st1" d="M510.03,432.54c-17.87,11.95-70.29,50.36-95.74,123.33-21.95,62.93-11.85,117.19-6.54,138.99-13.09,3.32-26.19,6.65-39.28,9.97,5.68,14.99,11.36,29.98,17.04,44.96,59.76-29.73,119.52-59.46,179.28-89.19-35.64,7.8-71.29,15.59-106.93,23.39-4.33-16.17-14.5-62.59,5.32-116.27,19.2-52,55.3-80.34,69.09-90.12-7.41-15.02-14.82-30.05-22.23-45.07Z"/>
    <path class="st1" d="M842.24,503.33c-10.91-17.05-48.49-71.04-121.96-96.49-63.64-22.05-118.39-10.27-139.07-4.7-3.72-14.13-7.45-28.27-11.17-42.4-15.47,5.63-30.93,11.25-46.4,16.88,30.34,61.23,60.68,122.47,91.02,183.7-7.31-36.07-14.61-72.15-21.92-108.22,14.23-4.4,61.77-17.16,116.33,3.79,51.4,19.73,77.8,57.39,86.07,70.33,15.7-7.63,31.4-15.25,47.1-22.88Z"/>
    <path class="st1" d="M769.31,835.99c18.23-11.94,71.96-50.49,98.19-124.38,21.79-61.36,13.06-114.57,8.06-136.89,12.72-3.15,25.43-6.3,38.15-9.44-5.7-16.14-11.39-32.28-17.09-48.42-62.25,30.75-124.49,61.49-186.74,92.24,35.64-7.95,71.28-15.9,106.92-23.85,4.52,16.14,14.96,61.5-3.43,114.62-18.16,52.45-53.71,81.51-67.23,91.52,7.72,14.87,15.44,29.74,23.15,44.6Z"/>
    <path class="st1" d="M437.94,765.51c12.1,18.13,51.11,71.51,125.23,97.1,61.55,21.25,114.68,12.06,136.96,6.87,3.26,12.69,6.52,25.38,9.78,38.07,16.09-5.84,32.18-11.67,48.27-17.51-31.29-61.97-62.58-123.95-93.86-185.92,8.26,35.57,16.52,71.14,24.78,106.71-16.1,4.66-61.37,15.5-114.65-2.43-52.61-17.7-81.98-52.99-92.1-66.42-14.8,7.85-29.6,15.69-44.4,23.54Z"/>
  </g>
  <circle cx="641.09" cy="633.64" r="44.42"/>
  <circle class="st1" cx="641.09" cy="633.64" r="18.36"/>
  <circle class="st0" cx="641.09" cy="633.64" r="7.18"/>
</svg>